<svg class="icon" viewBox="0 0 1024 1024" xmlns="http://www.w3.org/2000/svg" width="200" height="200">
	<path d="M492.8 138.214a283.648 283.648 0 0 0-408.832 0c-111.949 115.15-111.949 342.247 0 457.421l55.885 57.523 2.304 2.228 335.462 304.128a51.2 51.2 0 0 0 68.787 0l335.412-304.128 2.33-2.228 55.884-57.523c111.949-115.2 111.949-342.272 0-457.472a283.725 283.725 0 0 0-408.832 0L512 157.952l-19.2-19.738zm373.811 71.322c73.319 75.469 73.319 239.283 0 314.726l-54.784 56.346L512.051 852.48 212.147 580.608l-54.758-56.32c-73.319-75.469-73.319-239.283 0-314.7 72.499-74.625 189.44-74.625 261.99 0l55.936 57.522a51.2 51.2 0 0 0 73.447-.025l55.859-57.549c72.55-74.573 189.491-74.573 261.99 0z" />
</svg>
