<svg t="1672828646310" class="icon" viewBox="0 0 1024 1024" version="1.1" xmlns="http://www.w3.org/2000/svg" p-id="987" width="200" height="200">
	<path d="M784.93 621.64H258.81c-6.46 0-12.91 0.02-19.37 0a80.33 80.33 0 0 1-9.92-0.64c2.18 0.3 4.37 0.6 6.55 0.89-6.14-0.87-12.09-2.5-17.83-4.87 1.96 0.84 3.93 1.68 5.89 2.52a74.022 74.022 0 0 1-16.37-9.67l4.99 3.91a75.647 75.647 0 0 1-12.68-12.86c1.28 1.69 2.57 3.37 3.85 5.06a75.82 75.82 0 0 1-9.53-16.61c0.83 1.99 1.66 3.98 2.48 5.97a76.323 76.323 0 0 1-4.8-18.09c0.29 2.22 0.59 4.43 0.88 6.65-1.58-12.65-0.63-25.93-0.63-38.63V468.6v-93.87-80.38c0-12.07-0.06-24.13 0-36.2 0.02-3.27 0.23-6.52 0.63-9.77-0.29 2.22-0.59 4.43-0.88 6.65a76.45 76.45 0 0 1 4.8-18.09c-0.83 1.99-1.66 3.98-2.48 5.97a76.051 76.051 0 0 1 9.53-16.61c-1.28 1.69-2.57 3.37-3.85 5.06 3.72-4.8 7.95-9.09 12.68-12.86l-4.99 3.91a74.804 74.804 0 0 1 16.37-9.67c-1.96 0.84-3.93 1.68-5.89 2.52 5.74-2.38 11.69-4 17.83-4.87-2.18 0.3-4.37 0.6-6.55 0.89 7.33-0.94 14.83-0.64 22.2-0.64h513.17c6.54 0 13.08-0.02 19.63 0 3.33 0.01 6.64 0.22 9.94 0.64-2.18-0.3-4.37-0.6-6.55-0.89 6.14 0.87 12.09 2.5 17.83 4.87-1.96-0.84-3.93-1.68-5.89-2.52a74.022 74.022 0 0 1 16.37 9.67l-4.99-3.91c4.73 3.77 8.96 8.06 12.68 12.86-1.28-1.69-2.57-3.37-3.85-5.06a75.82 75.82 0 0 1 9.53 16.61c-0.83-1.99-1.66-3.98-2.48-5.97a76.323 76.323 0 0 1 4.8 18.09c-0.29-2.22-0.59-4.43-0.88-6.65 1.58 12.65 0.63 25.93 0.63 38.63V537.93c0 12.07 0.06 24.13 0 36.2a84.04 84.04 0 0 1-0.63 9.77c0.29-2.22 0.59-4.43 0.88-6.65a76.45 76.45 0 0 1-4.8 18.09c0.83-1.99 1.66-3.98 2.48-5.97a76.051 76.051 0 0 1-9.53 16.61c1.28-1.69 2.57-3.37 3.85-5.06-3.72 4.8-7.95 9.09-12.68 12.86l4.99-3.91a74.804 74.804 0 0 1-16.37 9.67c1.96-0.84 3.93-1.68 5.89-2.52-5.74 2.38-11.69 4-17.83 4.87 2.18-0.3 4.37-0.6 6.55-0.89-3.16 0.41-6.33 0.62-9.53 0.64-12.89 0.09-25.25 11.44-24.65 25 0.59 13.47 10.83 25.09 24.65 25 42.02-0.28 79.39-28.46 91.91-69.11 4.06-13.19 4.12-26.66 4.12-40.24V517.6v-64.78-71.97-65.31-44.94c0-13.32 0.01-26.48-3.73-39.48-11.69-40.66-48.71-69.31-90.37-70.43-4.42-0.12-8.85-0.03-13.28-0.03H241.85c-22.45 0-43.65 6.57-61.48 20.55-24.09 18.88-37.36 47.82-37.36 78.59v312.94c0 10 1.18 20.23 4.12 29.8 2.86 9.28 6.98 18.57 12.59 26.5 6.92 9.78 14.38 17.39 23.85 24.58 16.8 12.76 37.77 18.04 58.5 18.04H784.91c12.89 0 25.25-11.5 24.65-25-0.57-13.57-10.81-25.02-24.63-25.02zM795.22 813.35H251.79c-7.34 0-14.69-0.06-22.03 0h-0.96c-6.32 0-12.96 2.79-17.43 7.32-4.28 4.34-7.49 11.45-7.22 17.68 0.6 13.55 10.83 25 24.65 25h543.43c7.34 0 14.69 0.06 22.03 0h0.96c6.32 0 12.96-2.79 17.43-7.32 4.28-4.34 7.49-11.45 7.22-17.68-0.6-13.55-10.83-25-24.65-25z" fill="#231815" p-id="988">
	</path>
	<path d="M680.52 498.91H338.23c-4.62 0-9.25-0.03-13.88 0h-0.61c-6.32 0-12.96 2.79-17.43 7.32-4.28 4.34-7.49 11.45-7.22 17.68 0.29 6.47 2.38 13.17 7.22 17.68 4.82 4.49 10.75 7.32 17.43 7.32h342.29c4.62 0 9.25 0.03 13.88 0h0.61c6.32 0 12.96-2.79 17.43-7.32 4.28-4.34 7.49-11.45 7.22-17.68-0.29-6.47-2.38-13.17-7.22-17.68-4.82-4.48-10.75-7.32-17.43-7.32zM487.35 654.55V829.41c0 2.37-0.01 4.75 0 7.12v0.3c-0.13 3.44 0.58 6.65 2.12 9.63 0.99 3.1 2.69 5.78 5.1 8.05 2.23 2.44 4.88 4.16 7.93 5.17 2.94 1.57 6.1 2.28 9.5 2.15 2.18-0.3 4.37-0.6 6.55-0.89 4.18-1.19 7.8-3.33 10.88-6.43 4.43-4.89 7.22-10.9 7.22-17.68v-4.89-13.23-19.65-23.86-26.26-26.51-24.61-20.89-14.96c0-2.37 0.01-4.75 0-7.12v-0.3c0.13-3.44-0.58-6.65-2.12-9.63-0.99-3.1-2.69-5.78-5.1-8.05-2.23-2.44-4.88-4.16-7.93-5.17-2.94-1.57-6.1-2.28-9.5-2.15-2.18 0.3-4.37 0.6-6.55 0.89-4.18 1.19-7.8 3.33-10.88 6.43-4.43 4.89-7.22 10.91-7.22 17.68z" fill="#231815" p-id="989">
	</path>
	<path d="M592.5 821.26c0.64-4.16 0.97-8.43 0.97-12.78 0-45.64-36.48-82.63-81.47-82.63s-81.47 37-81.47 82.63c0 4.35 0.34 8.61 0.97 12.78h161z" p-id="990">
	</path>
</svg>
