<svg t="1673689090844" class="icon" viewBox="0 0 1024 1024" version="1.1" xmlns="http://www.w3.org/2000/svg" p-id="5118" width="200" height="200">
	<path d="M1015.466667 452.266667c4.266667-4.266667 4.266667-4.266667 4.266666-8.533334l4.266667-12.8V170.666667c0-25.6-17.066667-42.666667-42.666667-42.666667s-42.666667 17.066667-42.666666 42.666667v157.866666l-123.733334-119.466666C648.533333 42.666667 375.466667 42.666667 209.066667 209.066667S42.666667 648.533333 209.066667 814.933333C290.133333 896 396.8 938.666667 512 938.666667c89.6 0 174.933333-25.6 247.466667-81.066667 72.533333-51.2 123.733333-123.733333 153.6-204.8 8.533333-21.333333-4.266667-46.933333-25.6-55.466667s-46.933333 4.266667-55.466667 25.6c-25.6 64-68.266667 123.733333-123.733333 162.133334-59.733333 42.666667-128 64-196.266667 64-187.733333 0-341.333333-153.6-341.333333-341.333334s153.6-341.333333 341.333333-341.333333c89.6 0 179.2 34.133333 243.2 98.133333L874.666667 384H725.333333c-25.6 0-42.666667 17.066667-42.666666 42.666667s17.066667 42.666667 42.666666 42.666666h260.266667c4.266667 0 8.533333 0 12.8-4.266666 4.266667 0 8.533333-4.266667 17.066667-12.8" p-id="5119">
	</path>
</svg>
