<svg t="1673689115525" class="icon" viewBox="0 0 1024 1024" version="1.1" xmlns="http://www.w3.org/2000/svg" p-id="5273" width="200" height="200">
	<path d="M512 85.333333C401.066667 85.333333 290.133333 128 209.066667 209.066667L85.333333 328.533333V170.666667c0-25.6-17.066667-42.666667-42.666666-42.666667s-42.666667 17.066667-42.666667 42.666667v256c0 4.266667 0 8.533333 4.266667 12.8 0 4.266667 4.266667 8.533333 8.533333 12.8 4.266667 4.266667 8.533333 8.533333 12.8 8.533333 4.266667 8.533333 8.533333 8.533333 12.8 8.533333H298.666667c25.6 0 42.666667-17.066667 42.666666-42.666666s-21.333333-42.666667-42.666666-42.666667H149.333333l119.466667-110.933333c132.266667-132.266667 349.866667-132.266667 482.133333 0s132.266667 349.866667 0 482.133333C686.933333 819.2 601.6 853.333333 512 853.333333c-72.533333 0-140.8-21.333333-196.266667-64-55.466667-42.666667-98.133333-98.133333-123.733333-166.4-8.533333-21.333333-34.133333-34.133333-55.466667-25.6s-34.133333 34.133333-25.6 55.466667c29.866667 81.066667 85.333333 153.6 153.6 204.8C337.066667 908.8 422.4 938.666667 512 938.666667c234.666667 0 426.666667-192 426.666667-426.666667S746.666667 85.333333 512 85.333333z" p-id="5274">
	</path>
</svg>
