<svg t="1673018896444" class="icon" viewBox="0 0 1024 1024" version="1.1" xmlns="http://www.w3.org/2000/svg" p-id="6479" width="200" height="200">
	<path d="M563.2 51.2c226.2272 0 409.6 183.3728 409.6 409.6v409.6a102.4 102.4 0 0 1-102.4 102.4H460.8C234.5728 972.8 51.2 789.4272 51.2 563.2v-102.4C51.2 234.5728 234.5728 51.2 460.8 51.2h102.4z m130.56 191.744a48.512 48.512 0 0 0-59.392 34.304l-28.672 106.9568A38.8352 38.8352 0 0 0 601.6 384h-89.4208l21.8624-81.6384a48.512 48.512 0 0 0-93.696-25.088l-28.6208 106.7008L268.8 384a38.4 38.4 0 0 0 0 76.8h122.3424l-34.304 128H268.8a38.4 38.4 0 0 0 0 76.8h67.456l-21.4528 80.1792a48.512 48.512 0 0 0 93.696 25.088L436.736 665.6h93.568l-21.4528 80.2048a48.512 48.512 0 0 0 93.696 25.088L630.7328 665.6 755.2 665.6a38.4 38.4 0 0 0 0-76.8h-103.8848L728.064 302.336a48.512 48.512 0 0 0-34.304-59.392zM585.1648 460.8l-34.304 128h-93.568l34.304-128h93.568z m195.6352-76.8a38.4 38.4 0 1 0 0 76.8 38.4 38.4 0 0 0 0-76.8z" p-id="6480">
	</path>
</svg>
